<svg width="227" height="96" viewBox="0 0 227 96" fill="none" xmlns="http://www.w3.org/2000/svg">
<path d="M31.936 62.064H15.168L12.48 70H1.024L17.28 25.072H29.952L46.208 70H34.624L31.936 62.064ZM29.12 53.616L23.552 37.168L18.048 53.616H29.12ZM61.9075 25.072V51.952C61.9075 54.64 62.5688 56.7093 63.8915 58.16C65.2142 59.6107 67.1555 60.336 69.7155 60.336C72.2755 60.336 74.2382 59.6107 75.6035 58.16C76.9688 56.7093 77.6515 54.64 77.6515 51.952V25.072H88.5955V51.888C88.5955 55.8987 87.7422 59.2907 86.0355 62.064C84.3288 64.8373 82.0248 66.928 79.1235 68.336C76.2648 69.744 73.0648 70.448 69.5235 70.448C65.9822 70.448 62.8035 69.7653 59.9875 68.4C57.2142 66.992 55.0168 64.9013 53.3955 62.128C51.7742 59.312 50.9635 55.8987 50.9635 51.888V25.072H61.9075ZM119.193 70L109.849 53.04H107.225V70H96.2805V25.072H114.649C118.19 25.072 121.198 25.6907 123.673 26.928C126.19 28.1653 128.067 29.872 129.305 32.048C130.542 34.1813 131.161 36.5707 131.161 39.216C131.161 42.2027 130.307 44.8693 128.601 47.216C126.937 49.5627 124.462 51.2267 121.177 52.208L131.545 70H119.193ZM107.225 45.296H114.009C116.014 45.296 117.507 44.8053 118.489 43.824C119.513 42.8427 120.025 41.456 120.025 39.664C120.025 37.9573 119.513 36.6133 118.489 35.632C117.507 34.6507 116.014 34.16 114.009 34.16H107.225V45.296ZM165.999 62.064H149.231L146.543 70H135.087L151.343 25.072H164.015L180.271 70H168.687L165.999 62.064ZM163.183 53.616L157.615 37.168L152.111 53.616H163.183Z" fill="url(#paint0_linear_79_1178)"/>
<path d="M221.035 35.74L212 33.062L212 31.385L218.838 29.487L212 27.472L211.987 25.808L221.035 23.247L221.035 24.82L213.677 26.692L221.035 28.72L221.035 30.384L213.716 32.269L221.035 34.154L221.035 35.74ZM213.846 42.4093L213.846 38.6263L212 37.9763L212 36.4293L221.048 39.6663L221.048 41.3823L212 44.6193L212 43.0593L213.846 42.4093ZM215.055 41.9933L219.254 40.5243L215.055 39.0423L215.055 41.9933ZM221.035 51.8638L219.826 51.8638L219.826 49.4588L212 49.4588L212 47.9768L219.826 47.9768L219.826 45.5588L221.035 45.5588L221.035 51.8638ZM216.537 52.8706C217.421 52.8706 218.214 53.0743 218.916 53.4816C219.618 53.8976 220.164 54.4566 220.554 55.1586C220.953 55.8693 221.152 56.645 221.152 57.4856C221.152 58.4476 220.914 59.3013 220.437 60.0466C219.969 60.8006 219.302 61.3466 218.435 61.6846L218.435 59.9036C218.912 59.6696 219.267 59.3446 219.501 58.9286C219.735 58.5126 219.852 58.0316 219.852 57.4856C219.852 56.8876 219.718 56.3546 219.449 55.8866C219.18 55.4186 218.795 55.0503 218.292 54.7816C217.789 54.5216 217.204 54.3916 216.537 54.3916C215.87 54.3916 215.285 54.5216 214.782 54.7816C214.279 55.0503 213.889 55.4186 213.612 55.8866C213.343 56.3546 213.209 56.8876 213.209 57.4856C213.209 58.0316 213.326 58.5126 213.56 58.9286C213.794 59.3446 214.149 59.6696 214.626 59.9036L214.626 61.6846C213.759 61.3466 213.092 60.8006 212.624 60.0466C212.156 59.3013 211.922 58.4476 211.922 57.4856C211.922 56.6363 212.117 55.8606 212.507 55.1586C212.906 54.4566 213.456 53.8976 214.158 53.4816C214.86 53.0743 215.653 52.8706 216.537 52.8706ZM221.035 70.6343L212 70.6343L212 69.1523L215.952 69.1523L215.952 64.9013L212 64.9013L212 63.4193L221.035 63.4193L221.035 64.9013L217.161 64.9013L217.161 69.1523L221.035 69.1523L221.035 70.6343Z" fill="#E8C284"/>
<line x1="199" y1="23" x2="199" y2="71" stroke="#CCB082" stroke-width="2"/>
<defs>
<linearGradient id="paint0_linear_79_1178" x1="9.5" y1="26.5" x2="182" y2="82.5" gradientUnits="userSpaceOnUse">
<stop stop-color="#E8C284"/>
<stop offset="0.261434" stop-color="#D5B47D"/>
<stop offset="0.495689" stop-color="#E3C38D"/>
<stop offset="0.748792" stop-color="#B59A6D"/>
<stop offset="1" stop-color="#826D4A"/>
</linearGradient>
</defs>
</svg>
